<mxfile host="app.diagrams.net" modified="2021-03-31T00:18:34.390Z" agent="5.0 (Macintosh; Intel Mac OS X 11_2_3) AppleWebKit/537.36 (KHTML, like Gecko) Chrome/89.0.4389.90 Safari/537.36" etag="zQgOs-l3WZK6rb-KtxN3" version="14.5.3" type="github">
  <diagram id="R2lEEEUBdFMjLlhIrx00" name="Page-1">
    <mxGraphModel dx="849" dy="1780" grid="1" gridSize="10" guides="1" tooltips="1" connect="1" arrows="0" fold="1" page="1" pageScale="1" pageWidth="1100" pageHeight="850" background="#F1FAEE" math="0" shadow="0" extFonts="Permanent Marker^https://fonts.googleapis.com/css?family=Permanent+Marker">
      <root>
        <mxCell id="0" />
        <mxCell id="1" parent="0" />
        <mxCell id="C-vyLk0tnHw3VtMMgP7b-1" value="" style="edgeStyle=entityRelationEdgeStyle;endArrow=ERzeroToMany;startArrow=ERone;endFill=1;startFill=0;strokeColor=#457B9D;fontColor=#1D3557;labelBackgroundColor=#F1FAEE;" parent="1" target="C-vyLk0tnHw3VtMMgP7b-6" edge="1">
          <mxGeometry width="100" height="100" relative="1" as="geometry">
            <mxPoint x="370" y="165" as="sourcePoint" />
            <mxPoint x="440" y="620" as="targetPoint" />
          </mxGeometry>
        </mxCell>
        <mxCell id="C-vyLk0tnHw3VtMMgP7b-12" value="" style="edgeStyle=entityRelationEdgeStyle;endArrow=ERzeroToMany;startArrow=ERone;endFill=1;startFill=0;strokeColor=#457B9D;fontColor=#1D3557;labelBackgroundColor=#F1FAEE;" parent="1" target="C-vyLk0tnHw3VtMMgP7b-17" edge="1">
          <mxGeometry width="100" height="100" relative="1" as="geometry">
            <mxPoint x="700" y="165" as="sourcePoint" />
            <mxPoint x="460" y="205" as="targetPoint" />
          </mxGeometry>
        </mxCell>
        <mxCell id="NaKYAFpzRuEfEqi5Qttv-2" value="Table" style="shape=table;startSize=30;container=1;collapsible=1;childLayout=tableLayout;fixedRows=1;rowLines=0;fontStyle=1;align=center;resizeLast=1;fillColor=#A8DADC;strokeColor=#457B9D;fontColor=#1D3557;" vertex="1" collapsed="1" parent="1">
          <mxGeometry x="900" y="-80" width="60" height="30" as="geometry">
            <mxRectangle x="960" y="90" width="180" height="150" as="alternateBounds" />
          </mxGeometry>
        </mxCell>
        <mxCell id="NaKYAFpzRuEfEqi5Qttv-3" value="" style="shape=partialRectangle;collapsible=0;dropTarget=0;pointerEvents=0;fillColor=none;top=0;left=0;bottom=1;right=0;points=[[0,0.5],[1,0.5]];portConstraint=eastwest;strokeColor=#457B9D;fontColor=#1D3557;" vertex="1" parent="NaKYAFpzRuEfEqi5Qttv-2">
          <mxGeometry y="30" width="180" height="20" as="geometry" />
        </mxCell>
        <mxCell id="NaKYAFpzRuEfEqi5Qttv-4" value="PK" style="shape=partialRectangle;connectable=0;fillColor=none;top=0;left=0;bottom=0;right=0;fontStyle=1;overflow=hidden;strokeColor=#457B9D;fontColor=#1D3557;" vertex="1" parent="NaKYAFpzRuEfEqi5Qttv-3">
          <mxGeometry width="30" height="20" as="geometry" />
        </mxCell>
        <mxCell id="NaKYAFpzRuEfEqi5Qttv-5" value="UniqueID" style="shape=partialRectangle;connectable=0;fillColor=none;top=0;left=0;bottom=0;right=0;align=left;spacingLeft=6;fontStyle=5;overflow=hidden;strokeColor=#457B9D;fontColor=#1D3557;" vertex="1" parent="NaKYAFpzRuEfEqi5Qttv-3">
          <mxGeometry x="30" width="150" height="20" as="geometry" />
        </mxCell>
        <mxCell id="NaKYAFpzRuEfEqi5Qttv-6" value="" style="shape=partialRectangle;collapsible=0;dropTarget=0;pointerEvents=0;fillColor=none;top=0;left=0;bottom=0;right=0;points=[[0,0.5],[1,0.5]];portConstraint=eastwest;strokeColor=#457B9D;fontColor=#1D3557;" vertex="1" parent="NaKYAFpzRuEfEqi5Qttv-2">
          <mxGeometry y="50" width="180" height="30" as="geometry" />
        </mxCell>
        <mxCell id="NaKYAFpzRuEfEqi5Qttv-7" value="" style="shape=partialRectangle;connectable=0;fillColor=none;top=0;left=0;bottom=0;right=0;editable=1;overflow=hidden;strokeColor=#457B9D;fontColor=#1D3557;" vertex="1" parent="NaKYAFpzRuEfEqi5Qttv-6">
          <mxGeometry width="30" height="30" as="geometry" />
        </mxCell>
        <mxCell id="NaKYAFpzRuEfEqi5Qttv-8" value="Row 1" style="shape=partialRectangle;connectable=0;fillColor=none;top=0;left=0;bottom=0;right=0;align=left;spacingLeft=6;overflow=hidden;strokeColor=#457B9D;fontColor=#1D3557;" vertex="1" parent="NaKYAFpzRuEfEqi5Qttv-6">
          <mxGeometry x="30" width="150" height="30" as="geometry" />
        </mxCell>
        <mxCell id="NaKYAFpzRuEfEqi5Qttv-9" value="" style="shape=partialRectangle;collapsible=0;dropTarget=0;pointerEvents=0;fillColor=none;top=0;left=0;bottom=0;right=0;points=[[0,0.5],[1,0.5]];portConstraint=eastwest;strokeColor=#457B9D;fontColor=#1D3557;" vertex="1" parent="NaKYAFpzRuEfEqi5Qttv-2">
          <mxGeometry y="80" width="180" height="30" as="geometry" />
        </mxCell>
        <mxCell id="NaKYAFpzRuEfEqi5Qttv-10" value="" style="shape=partialRectangle;connectable=0;fillColor=none;top=0;left=0;bottom=0;right=0;editable=1;overflow=hidden;strokeColor=#457B9D;fontColor=#1D3557;" vertex="1" parent="NaKYAFpzRuEfEqi5Qttv-9">
          <mxGeometry width="30" height="30" as="geometry" />
        </mxCell>
        <mxCell id="NaKYAFpzRuEfEqi5Qttv-11" value="Row 2" style="shape=partialRectangle;connectable=0;fillColor=none;top=0;left=0;bottom=0;right=0;align=left;spacingLeft=6;overflow=hidden;strokeColor=#457B9D;fontColor=#1D3557;" vertex="1" parent="NaKYAFpzRuEfEqi5Qttv-9">
          <mxGeometry x="30" width="150" height="30" as="geometry" />
        </mxCell>
        <mxCell id="NaKYAFpzRuEfEqi5Qttv-12" value="" style="shape=partialRectangle;collapsible=0;dropTarget=0;pointerEvents=0;fillColor=none;top=0;left=0;bottom=0;right=0;points=[[0,0.5],[1,0.5]];portConstraint=eastwest;strokeColor=#457B9D;fontColor=#1D3557;" vertex="1" parent="NaKYAFpzRuEfEqi5Qttv-2">
          <mxGeometry y="110" width="180" height="30" as="geometry" />
        </mxCell>
        <mxCell id="NaKYAFpzRuEfEqi5Qttv-13" value="" style="shape=partialRectangle;connectable=0;fillColor=none;top=0;left=0;bottom=0;right=0;editable=1;overflow=hidden;strokeColor=#457B9D;fontColor=#1D3557;" vertex="1" parent="NaKYAFpzRuEfEqi5Qttv-12">
          <mxGeometry width="30" height="30" as="geometry" />
        </mxCell>
        <mxCell id="NaKYAFpzRuEfEqi5Qttv-14" value="Row 3" style="shape=partialRectangle;connectable=0;fillColor=none;top=0;left=0;bottom=0;right=0;align=left;spacingLeft=6;overflow=hidden;strokeColor=#457B9D;fontColor=#1D3557;" vertex="1" parent="NaKYAFpzRuEfEqi5Qttv-12">
          <mxGeometry x="30" width="150" height="30" as="geometry" />
        </mxCell>
        <mxCell id="NaKYAFpzRuEfEqi5Qttv-47" value="assignments" style="shape=table;startSize=30;container=1;collapsible=1;childLayout=tableLayout;fixedRows=1;rowLines=0;fontStyle=1;align=center;resizeLast=1;fillColor=#A8DADC;strokeColor=#457B9D;fontColor=#1D3557;" vertex="1" parent="1">
          <mxGeometry x="1470" y="100" width="180" height="230" as="geometry" />
        </mxCell>
        <mxCell id="NaKYAFpzRuEfEqi5Qttv-48" value="" style="shape=partialRectangle;collapsible=0;dropTarget=0;pointerEvents=0;fillColor=none;top=0;left=0;bottom=1;right=0;points=[[0,0.5],[1,0.5]];portConstraint=eastwest;strokeColor=#457B9D;fontColor=#1D3557;" vertex="1" parent="NaKYAFpzRuEfEqi5Qttv-47">
          <mxGeometry y="30" width="180" height="20" as="geometry" />
        </mxCell>
        <mxCell id="NaKYAFpzRuEfEqi5Qttv-49" value="PK" style="shape=partialRectangle;connectable=0;fillColor=none;top=0;left=0;bottom=0;right=0;fontStyle=1;overflow=hidden;strokeColor=#457B9D;fontColor=#1D3557;" vertex="1" parent="NaKYAFpzRuEfEqi5Qttv-48">
          <mxGeometry width="30" height="20" as="geometry" />
        </mxCell>
        <mxCell id="NaKYAFpzRuEfEqi5Qttv-50" value="id" style="shape=partialRectangle;connectable=0;fillColor=none;top=0;left=0;bottom=0;right=0;align=left;spacingLeft=6;fontStyle=5;overflow=hidden;strokeColor=#457B9D;fontColor=#1D3557;" vertex="1" parent="NaKYAFpzRuEfEqi5Qttv-48">
          <mxGeometry x="30" width="150" height="20" as="geometry" />
        </mxCell>
        <mxCell id="NaKYAFpzRuEfEqi5Qttv-51" value="" style="shape=partialRectangle;collapsible=0;dropTarget=0;pointerEvents=0;fillColor=none;top=0;left=0;bottom=0;right=0;points=[[0,0.5],[1,0.5]];portConstraint=eastwest;strokeColor=#457B9D;fontColor=#1D3557;" vertex="1" parent="NaKYAFpzRuEfEqi5Qttv-47">
          <mxGeometry y="50" width="180" height="30" as="geometry" />
        </mxCell>
        <mxCell id="NaKYAFpzRuEfEqi5Qttv-52" value="" style="shape=partialRectangle;connectable=0;fillColor=none;top=0;left=0;bottom=0;right=0;editable=1;overflow=hidden;strokeColor=#457B9D;fontColor=#1D3557;" vertex="1" parent="NaKYAFpzRuEfEqi5Qttv-51">
          <mxGeometry width="30" height="30" as="geometry" />
        </mxCell>
        <mxCell id="NaKYAFpzRuEfEqi5Qttv-53" value="name" style="shape=partialRectangle;connectable=0;fillColor=none;top=0;left=0;bottom=0;right=0;align=left;spacingLeft=6;overflow=hidden;strokeColor=#457B9D;fontColor=#1D3557;" vertex="1" parent="NaKYAFpzRuEfEqi5Qttv-51">
          <mxGeometry x="30" width="150" height="30" as="geometry" />
        </mxCell>
        <mxCell id="NaKYAFpzRuEfEqi5Qttv-54" value="" style="shape=partialRectangle;collapsible=0;dropTarget=0;pointerEvents=0;fillColor=none;top=0;left=0;bottom=0;right=0;points=[[0,0.5],[1,0.5]];portConstraint=eastwest;strokeColor=#457B9D;fontColor=#1D3557;" vertex="1" parent="NaKYAFpzRuEfEqi5Qttv-47">
          <mxGeometry y="80" width="180" height="30" as="geometry" />
        </mxCell>
        <mxCell id="NaKYAFpzRuEfEqi5Qttv-55" value="" style="shape=partialRectangle;connectable=0;fillColor=none;top=0;left=0;bottom=0;right=0;editable=1;overflow=hidden;strokeColor=#457B9D;fontColor=#1D3557;" vertex="1" parent="NaKYAFpzRuEfEqi5Qttv-54">
          <mxGeometry width="30" height="30" as="geometry" />
        </mxCell>
        <mxCell id="NaKYAFpzRuEfEqi5Qttv-56" value="content" style="shape=partialRectangle;connectable=0;fillColor=none;top=0;left=0;bottom=0;right=0;align=left;spacingLeft=6;overflow=hidden;strokeColor=#457B9D;fontColor=#1D3557;" vertex="1" parent="NaKYAFpzRuEfEqi5Qttv-54">
          <mxGeometry x="30" width="150" height="30" as="geometry" />
        </mxCell>
        <mxCell id="NaKYAFpzRuEfEqi5Qttv-57" value="" style="shape=partialRectangle;collapsible=0;dropTarget=0;pointerEvents=0;fillColor=none;top=0;left=0;bottom=0;right=0;points=[[0,0.5],[1,0.5]];portConstraint=eastwest;strokeColor=#457B9D;fontColor=#1D3557;" vertex="1" parent="NaKYAFpzRuEfEqi5Qttv-47">
          <mxGeometry y="110" width="180" height="30" as="geometry" />
        </mxCell>
        <mxCell id="NaKYAFpzRuEfEqi5Qttv-58" value="" style="shape=partialRectangle;connectable=0;fillColor=none;top=0;left=0;bottom=0;right=0;editable=1;overflow=hidden;strokeColor=#457B9D;fontColor=#1D3557;" vertex="1" parent="NaKYAFpzRuEfEqi5Qttv-57">
          <mxGeometry width="30" height="30" as="geometry" />
        </mxCell>
        <mxCell id="NaKYAFpzRuEfEqi5Qttv-59" value="day" style="shape=partialRectangle;connectable=0;fillColor=none;top=0;left=0;bottom=0;right=0;align=left;spacingLeft=6;overflow=hidden;strokeColor=#457B9D;fontColor=#1D3557;" vertex="1" parent="NaKYAFpzRuEfEqi5Qttv-57">
          <mxGeometry x="30" width="150" height="30" as="geometry" />
        </mxCell>
        <mxCell id="NaKYAFpzRuEfEqi5Qttv-60" value="" style="shape=partialRectangle;collapsible=0;dropTarget=0;pointerEvents=0;fillColor=none;top=0;left=0;bottom=0;right=0;points=[[0,0.5],[1,0.5]];portConstraint=eastwest;strokeColor=#457B9D;fontColor=#1D3557;" vertex="1" parent="NaKYAFpzRuEfEqi5Qttv-47">
          <mxGeometry y="140" width="180" height="30" as="geometry" />
        </mxCell>
        <mxCell id="NaKYAFpzRuEfEqi5Qttv-61" value="" style="shape=partialRectangle;connectable=0;fillColor=none;top=0;left=0;bottom=0;right=0;editable=1;overflow=hidden;strokeColor=#457B9D;fontColor=#1D3557;" vertex="1" parent="NaKYAFpzRuEfEqi5Qttv-60">
          <mxGeometry width="30" height="30" as="geometry" />
        </mxCell>
        <mxCell id="NaKYAFpzRuEfEqi5Qttv-62" value="chapter" style="shape=partialRectangle;connectable=0;fillColor=none;top=0;left=0;bottom=0;right=0;align=left;spacingLeft=6;overflow=hidden;strokeColor=#457B9D;fontColor=#1D3557;" vertex="1" parent="NaKYAFpzRuEfEqi5Qttv-60">
          <mxGeometry x="30" width="150" height="30" as="geometry" />
        </mxCell>
        <mxCell id="NaKYAFpzRuEfEqi5Qttv-63" value="" style="shape=partialRectangle;collapsible=0;dropTarget=0;pointerEvents=0;fillColor=none;top=0;left=0;bottom=0;right=0;points=[[0,0.5],[1,0.5]];portConstraint=eastwest;strokeColor=#457B9D;fontColor=#1D3557;" vertex="1" parent="NaKYAFpzRuEfEqi5Qttv-47">
          <mxGeometry y="170" width="180" height="30" as="geometry" />
        </mxCell>
        <mxCell id="NaKYAFpzRuEfEqi5Qttv-64" value="" style="shape=partialRectangle;connectable=0;fillColor=none;top=0;left=0;bottom=0;right=0;editable=1;overflow=hidden;strokeColor=#457B9D;fontColor=#1D3557;" vertex="1" parent="NaKYAFpzRuEfEqi5Qttv-63">
          <mxGeometry width="30" height="30" as="geometry" />
        </mxCell>
        <mxCell id="NaKYAFpzRuEfEqi5Qttv-65" value="duration" style="shape=partialRectangle;connectable=0;fillColor=none;top=0;left=0;bottom=0;right=0;align=left;spacingLeft=6;overflow=hidden;strokeColor=#457B9D;fontColor=#1D3557;" vertex="1" parent="NaKYAFpzRuEfEqi5Qttv-63">
          <mxGeometry x="30" width="150" height="30" as="geometry" />
        </mxCell>
        <mxCell id="NaKYAFpzRuEfEqi5Qttv-66" value="assignment/-submissions" style="shape=table;startSize=30;container=1;collapsible=1;childLayout=tableLayout;fixedRows=1;rowLines=0;fontStyle=1;align=center;resizeLast=1;fillColor=#A8DADC;strokeColor=#457B9D;fontColor=#1D3557;" vertex="1" parent="1">
          <mxGeometry x="1220" y="-80" width="180" height="180" as="geometry" />
        </mxCell>
        <mxCell id="NaKYAFpzRuEfEqi5Qttv-67" value="" style="shape=partialRectangle;collapsible=0;dropTarget=0;pointerEvents=0;fillColor=none;top=0;left=0;bottom=1;right=0;points=[[0,0.5],[1,0.5]];portConstraint=eastwest;strokeColor=#457B9D;fontColor=#1D3557;" vertex="1" parent="NaKYAFpzRuEfEqi5Qttv-66">
          <mxGeometry y="30" width="180" height="20" as="geometry" />
        </mxCell>
        <mxCell id="NaKYAFpzRuEfEqi5Qttv-68" value="PK" style="shape=partialRectangle;connectable=0;fillColor=none;top=0;left=0;bottom=0;right=0;fontStyle=1;overflow=hidden;strokeColor=#457B9D;fontColor=#1D3557;" vertex="1" parent="NaKYAFpzRuEfEqi5Qttv-67">
          <mxGeometry width="30" height="20" as="geometry" />
        </mxCell>
        <mxCell id="NaKYAFpzRuEfEqi5Qttv-69" value="id" style="shape=partialRectangle;connectable=0;fillColor=none;top=0;left=0;bottom=0;right=0;align=left;spacingLeft=6;fontStyle=5;overflow=hidden;strokeColor=#457B9D;fontColor=#1D3557;" vertex="1" parent="NaKYAFpzRuEfEqi5Qttv-67">
          <mxGeometry x="30" width="150" height="20" as="geometry" />
        </mxCell>
        <mxCell id="NaKYAFpzRuEfEqi5Qttv-70" value="" style="shape=partialRectangle;collapsible=0;dropTarget=0;pointerEvents=0;fillColor=none;top=0;left=0;bottom=0;right=0;points=[[0,0.5],[1,0.5]];portConstraint=eastwest;strokeColor=#457B9D;fontColor=#1D3557;" vertex="1" parent="NaKYAFpzRuEfEqi5Qttv-66">
          <mxGeometry y="50" width="180" height="30" as="geometry" />
        </mxCell>
        <mxCell id="NaKYAFpzRuEfEqi5Qttv-71" value="FK" style="shape=partialRectangle;connectable=0;fillColor=none;top=0;left=0;bottom=0;right=0;editable=1;overflow=hidden;strokeColor=#457B9D;fontColor=#1D3557;" vertex="1" parent="NaKYAFpzRuEfEqi5Qttv-70">
          <mxGeometry width="30" height="30" as="geometry" />
        </mxCell>
        <mxCell id="NaKYAFpzRuEfEqi5Qttv-72" value="assignment_id" style="shape=partialRectangle;connectable=0;fillColor=none;top=0;left=0;bottom=0;right=0;align=left;spacingLeft=6;overflow=hidden;strokeColor=#457B9D;fontColor=#1D3557;" vertex="1" parent="NaKYAFpzRuEfEqi5Qttv-70">
          <mxGeometry x="30" width="150" height="30" as="geometry" />
        </mxCell>
        <mxCell id="NaKYAFpzRuEfEqi5Qttv-73" value="" style="shape=partialRectangle;collapsible=0;dropTarget=0;pointerEvents=0;fillColor=none;top=0;left=0;bottom=0;right=0;points=[[0,0.5],[1,0.5]];portConstraint=eastwest;strokeColor=#457B9D;fontColor=#1D3557;" vertex="1" parent="NaKYAFpzRuEfEqi5Qttv-66">
          <mxGeometry y="80" width="180" height="30" as="geometry" />
        </mxCell>
        <mxCell id="NaKYAFpzRuEfEqi5Qttv-74" value="FK" style="shape=partialRectangle;connectable=0;fillColor=none;top=0;left=0;bottom=0;right=0;editable=1;overflow=hidden;strokeColor=#457B9D;fontColor=#1D3557;" vertex="1" parent="NaKYAFpzRuEfEqi5Qttv-73">
          <mxGeometry width="30" height="30" as="geometry" />
        </mxCell>
        <mxCell id="NaKYAFpzRuEfEqi5Qttv-75" value="student_id" style="shape=partialRectangle;connectable=0;fillColor=none;top=0;left=0;bottom=0;right=0;align=left;spacingLeft=6;overflow=hidden;strokeColor=#457B9D;fontColor=#1D3557;" vertex="1" parent="NaKYAFpzRuEfEqi5Qttv-73">
          <mxGeometry x="30" width="150" height="30" as="geometry" />
        </mxCell>
        <mxCell id="NaKYAFpzRuEfEqi5Qttv-76" value="" style="shape=partialRectangle;collapsible=0;dropTarget=0;pointerEvents=0;fillColor=none;top=0;left=0;bottom=0;right=0;points=[[0,0.5],[1,0.5]];portConstraint=eastwest;strokeColor=#457B9D;fontColor=#1D3557;" vertex="1" parent="NaKYAFpzRuEfEqi5Qttv-66">
          <mxGeometry y="110" width="180" height="30" as="geometry" />
        </mxCell>
        <mxCell id="NaKYAFpzRuEfEqi5Qttv-77" value="" style="shape=partialRectangle;connectable=0;fillColor=none;top=0;left=0;bottom=0;right=0;editable=1;overflow=hidden;strokeColor=#457B9D;fontColor=#1D3557;" vertex="1" parent="NaKYAFpzRuEfEqi5Qttv-76">
          <mxGeometry width="30" height="30" as="geometry" />
        </mxCell>
        <mxCell id="NaKYAFpzRuEfEqi5Qttv-78" value="duration" style="shape=partialRectangle;connectable=0;fillColor=none;top=0;left=0;bottom=0;right=0;align=left;spacingLeft=6;overflow=hidden;strokeColor=#457B9D;fontColor=#1D3557;" vertex="1" parent="NaKYAFpzRuEfEqi5Qttv-76">
          <mxGeometry x="30" width="150" height="30" as="geometry" />
        </mxCell>
        <mxCell id="NaKYAFpzRuEfEqi5Qttv-79" value="" style="shape=partialRectangle;collapsible=0;dropTarget=0;pointerEvents=0;fillColor=none;top=0;left=0;bottom=0;right=0;points=[[0,0.5],[1,0.5]];portConstraint=eastwest;strokeColor=#457B9D;fontColor=#1D3557;" vertex="1" parent="NaKYAFpzRuEfEqi5Qttv-66">
          <mxGeometry y="140" width="180" height="30" as="geometry" />
        </mxCell>
        <mxCell id="NaKYAFpzRuEfEqi5Qttv-80" value="" style="shape=partialRectangle;connectable=0;fillColor=none;top=0;left=0;bottom=0;right=0;editable=1;overflow=hidden;strokeColor=#457B9D;fontColor=#1D3557;" vertex="1" parent="NaKYAFpzRuEfEqi5Qttv-79">
          <mxGeometry width="30" height="30" as="geometry" />
        </mxCell>
        <mxCell id="NaKYAFpzRuEfEqi5Qttv-81" value="submission_date" style="shape=partialRectangle;connectable=0;fillColor=none;top=0;left=0;bottom=0;right=0;align=left;spacingLeft=6;overflow=hidden;strokeColor=#457B9D;fontColor=#1D3557;" vertex="1" parent="NaKYAFpzRuEfEqi5Qttv-79">
          <mxGeometry x="30" width="150" height="30" as="geometry" />
        </mxCell>
        <mxCell id="NaKYAFpzRuEfEqi5Qttv-82" value="students" style="shape=table;startSize=30;container=1;collapsible=1;childLayout=tableLayout;fixedRows=1;rowLines=0;fontStyle=1;align=center;resizeLast=1;fillColor=#A8DADC;strokeColor=#457B9D;fontColor=#1D3557;" vertex="1" parent="1">
          <mxGeometry x="1240" y="160" width="180" height="270" as="geometry" />
        </mxCell>
        <mxCell id="NaKYAFpzRuEfEqi5Qttv-83" value="" style="shape=partialRectangle;collapsible=0;dropTarget=0;pointerEvents=0;fillColor=none;top=0;left=0;bottom=1;right=0;points=[[0,0.5],[1,0.5]];portConstraint=eastwest;strokeColor=#457B9D;fontColor=#1D3557;" vertex="1" parent="NaKYAFpzRuEfEqi5Qttv-82">
          <mxGeometry y="30" width="180" height="20" as="geometry" />
        </mxCell>
        <mxCell id="NaKYAFpzRuEfEqi5Qttv-84" value="PK" style="shape=partialRectangle;connectable=0;fillColor=none;top=0;left=0;bottom=0;right=0;fontStyle=1;overflow=hidden;strokeColor=#457B9D;fontColor=#1D3557;" vertex="1" parent="NaKYAFpzRuEfEqi5Qttv-83">
          <mxGeometry width="30" height="20" as="geometry" />
        </mxCell>
        <mxCell id="NaKYAFpzRuEfEqi5Qttv-85" value="id" style="shape=partialRectangle;connectable=0;fillColor=none;top=0;left=0;bottom=0;right=0;align=left;spacingLeft=6;fontStyle=5;overflow=hidden;strokeColor=#457B9D;fontColor=#1D3557;" vertex="1" parent="NaKYAFpzRuEfEqi5Qttv-83">
          <mxGeometry x="30" width="150" height="20" as="geometry" />
        </mxCell>
        <mxCell id="NaKYAFpzRuEfEqi5Qttv-86" value="" style="shape=partialRectangle;collapsible=0;dropTarget=0;pointerEvents=0;fillColor=none;top=0;left=0;bottom=0;right=0;points=[[0,0.5],[1,0.5]];portConstraint=eastwest;strokeColor=#457B9D;fontColor=#1D3557;" vertex="1" parent="NaKYAFpzRuEfEqi5Qttv-82">
          <mxGeometry y="50" width="180" height="30" as="geometry" />
        </mxCell>
        <mxCell id="NaKYAFpzRuEfEqi5Qttv-87" value="" style="shape=partialRectangle;connectable=0;fillColor=none;top=0;left=0;bottom=0;right=0;editable=1;overflow=hidden;strokeColor=#457B9D;fontColor=#1D3557;" vertex="1" parent="NaKYAFpzRuEfEqi5Qttv-86">
          <mxGeometry width="30" height="30" as="geometry" />
        </mxCell>
        <mxCell id="NaKYAFpzRuEfEqi5Qttv-88" value="name" style="shape=partialRectangle;connectable=0;fillColor=none;top=0;left=0;bottom=0;right=0;align=left;spacingLeft=6;overflow=hidden;strokeColor=#457B9D;fontColor=#1D3557;" vertex="1" parent="NaKYAFpzRuEfEqi5Qttv-86">
          <mxGeometry x="30" width="150" height="30" as="geometry" />
        </mxCell>
        <mxCell id="NaKYAFpzRuEfEqi5Qttv-89" value="" style="shape=partialRectangle;collapsible=0;dropTarget=0;pointerEvents=0;fillColor=none;top=0;left=0;bottom=0;right=0;points=[[0,0.5],[1,0.5]];portConstraint=eastwest;strokeColor=#457B9D;fontColor=#1D3557;" vertex="1" parent="NaKYAFpzRuEfEqi5Qttv-82">
          <mxGeometry y="80" width="180" height="30" as="geometry" />
        </mxCell>
        <mxCell id="NaKYAFpzRuEfEqi5Qttv-90" value="" style="shape=partialRectangle;connectable=0;fillColor=none;top=0;left=0;bottom=0;right=0;editable=1;overflow=hidden;strokeColor=#457B9D;fontColor=#1D3557;" vertex="1" parent="NaKYAFpzRuEfEqi5Qttv-89">
          <mxGeometry width="30" height="30" as="geometry" />
        </mxCell>
        <mxCell id="NaKYAFpzRuEfEqi5Qttv-91" value="email" style="shape=partialRectangle;connectable=0;fillColor=none;top=0;left=0;bottom=0;right=0;align=left;spacingLeft=6;overflow=hidden;strokeColor=#457B9D;fontColor=#1D3557;" vertex="1" parent="NaKYAFpzRuEfEqi5Qttv-89">
          <mxGeometry x="30" width="150" height="30" as="geometry" />
        </mxCell>
        <mxCell id="NaKYAFpzRuEfEqi5Qttv-92" value="" style="shape=partialRectangle;collapsible=0;dropTarget=0;pointerEvents=0;fillColor=none;top=0;left=0;bottom=0;right=0;points=[[0,0.5],[1,0.5]];portConstraint=eastwest;strokeColor=#457B9D;fontColor=#1D3557;" vertex="1" parent="NaKYAFpzRuEfEqi5Qttv-82">
          <mxGeometry y="110" width="180" height="30" as="geometry" />
        </mxCell>
        <mxCell id="NaKYAFpzRuEfEqi5Qttv-93" value="" style="shape=partialRectangle;connectable=0;fillColor=none;top=0;left=0;bottom=0;right=0;editable=1;overflow=hidden;strokeColor=#457B9D;fontColor=#1D3557;" vertex="1" parent="NaKYAFpzRuEfEqi5Qttv-92">
          <mxGeometry width="30" height="30" as="geometry" />
        </mxCell>
        <mxCell id="NaKYAFpzRuEfEqi5Qttv-94" value="phone" style="shape=partialRectangle;connectable=0;fillColor=none;top=0;left=0;bottom=0;right=0;align=left;spacingLeft=6;overflow=hidden;strokeColor=#457B9D;fontColor=#1D3557;" vertex="1" parent="NaKYAFpzRuEfEqi5Qttv-92">
          <mxGeometry x="30" width="150" height="30" as="geometry" />
        </mxCell>
        <mxCell id="NaKYAFpzRuEfEqi5Qttv-95" value="" style="shape=partialRectangle;collapsible=0;dropTarget=0;pointerEvents=0;fillColor=none;top=0;left=0;bottom=0;right=0;points=[[0,0.5],[1,0.5]];portConstraint=eastwest;strokeColor=#457B9D;fontColor=#1D3557;" vertex="1" parent="NaKYAFpzRuEfEqi5Qttv-82">
          <mxGeometry y="140" width="180" height="30" as="geometry" />
        </mxCell>
        <mxCell id="NaKYAFpzRuEfEqi5Qttv-96" value="" style="shape=partialRectangle;connectable=0;fillColor=none;top=0;left=0;bottom=0;right=0;editable=1;overflow=hidden;strokeColor=#457B9D;fontColor=#1D3557;" vertex="1" parent="NaKYAFpzRuEfEqi5Qttv-95">
          <mxGeometry width="30" height="30" as="geometry" />
        </mxCell>
        <mxCell id="NaKYAFpzRuEfEqi5Qttv-97" value="github" style="shape=partialRectangle;connectable=0;fillColor=none;top=0;left=0;bottom=0;right=0;align=left;spacingLeft=6;overflow=hidden;strokeColor=#457B9D;fontColor=#1D3557;" vertex="1" parent="NaKYAFpzRuEfEqi5Qttv-95">
          <mxGeometry x="30" width="150" height="30" as="geometry" />
        </mxCell>
        <mxCell id="NaKYAFpzRuEfEqi5Qttv-98" value="" style="shape=partialRectangle;collapsible=0;dropTarget=0;pointerEvents=0;fillColor=none;top=0;left=0;bottom=0;right=0;points=[[0,0.5],[1,0.5]];portConstraint=eastwest;strokeColor=#457B9D;fontColor=#1D3557;" vertex="1" parent="NaKYAFpzRuEfEqi5Qttv-82">
          <mxGeometry y="170" width="180" height="30" as="geometry" />
        </mxCell>
        <mxCell id="NaKYAFpzRuEfEqi5Qttv-99" value="" style="shape=partialRectangle;connectable=0;fillColor=none;top=0;left=0;bottom=0;right=0;editable=1;overflow=hidden;strokeColor=#457B9D;fontColor=#1D3557;" vertex="1" parent="NaKYAFpzRuEfEqi5Qttv-98">
          <mxGeometry width="30" height="30" as="geometry" />
        </mxCell>
        <mxCell id="NaKYAFpzRuEfEqi5Qttv-100" value="start_date" style="shape=partialRectangle;connectable=0;fillColor=none;top=0;left=0;bottom=0;right=0;align=left;spacingLeft=6;overflow=hidden;strokeColor=#457B9D;fontColor=#1D3557;" vertex="1" parent="NaKYAFpzRuEfEqi5Qttv-98">
          <mxGeometry x="30" width="150" height="30" as="geometry" />
        </mxCell>
        <mxCell id="NaKYAFpzRuEfEqi5Qttv-101" value="" style="shape=partialRectangle;collapsible=0;dropTarget=0;pointerEvents=0;fillColor=none;top=0;left=0;bottom=0;right=0;points=[[0,0.5],[1,0.5]];portConstraint=eastwest;strokeColor=#457B9D;fontColor=#1D3557;" vertex="1" parent="NaKYAFpzRuEfEqi5Qttv-82">
          <mxGeometry y="200" width="180" height="30" as="geometry" />
        </mxCell>
        <mxCell id="NaKYAFpzRuEfEqi5Qttv-102" value="" style="shape=partialRectangle;connectable=0;fillColor=none;top=0;left=0;bottom=0;right=0;editable=1;overflow=hidden;strokeColor=#457B9D;fontColor=#1D3557;" vertex="1" parent="NaKYAFpzRuEfEqi5Qttv-101">
          <mxGeometry width="30" height="30" as="geometry" />
        </mxCell>
        <mxCell id="NaKYAFpzRuEfEqi5Qttv-103" value="end_date" style="shape=partialRectangle;connectable=0;fillColor=none;top=0;left=0;bottom=0;right=0;align=left;spacingLeft=6;overflow=hidden;strokeColor=#457B9D;fontColor=#1D3557;" vertex="1" parent="NaKYAFpzRuEfEqi5Qttv-101">
          <mxGeometry x="30" width="150" height="30" as="geometry" />
        </mxCell>
        <mxCell id="NaKYAFpzRuEfEqi5Qttv-104" value="" style="shape=partialRectangle;collapsible=0;dropTarget=0;pointerEvents=0;fillColor=none;top=0;left=0;bottom=0;right=0;points=[[0,0.5],[1,0.5]];portConstraint=eastwest;strokeColor=#457B9D;fontColor=#1D3557;" vertex="1" parent="NaKYAFpzRuEfEqi5Qttv-82">
          <mxGeometry y="230" width="180" height="30" as="geometry" />
        </mxCell>
        <mxCell id="NaKYAFpzRuEfEqi5Qttv-105" value="FK" style="shape=partialRectangle;connectable=0;fillColor=none;top=0;left=0;bottom=0;right=0;editable=1;overflow=hidden;strokeColor=#457B9D;fontColor=#1D3557;" vertex="1" parent="NaKYAFpzRuEfEqi5Qttv-104">
          <mxGeometry width="30" height="30" as="geometry" />
        </mxCell>
        <mxCell id="NaKYAFpzRuEfEqi5Qttv-106" value="cohort_id" style="shape=partialRectangle;connectable=0;fillColor=none;top=0;left=0;bottom=0;right=0;align=left;spacingLeft=6;overflow=hidden;strokeColor=#457B9D;fontColor=#1D3557;" vertex="1" parent="NaKYAFpzRuEfEqi5Qttv-104">
          <mxGeometry x="30" width="150" height="30" as="geometry" />
        </mxCell>
        <mxCell id="NaKYAFpzRuEfEqi5Qttv-107" value="cohorts" style="shape=table;startSize=30;container=1;collapsible=1;childLayout=tableLayout;fixedRows=1;rowLines=0;fontStyle=1;align=center;resizeLast=1;fillColor=#A8DADC;strokeColor=#457B9D;fontColor=#1D3557;" vertex="1" parent="1">
          <mxGeometry x="920" y="20" width="180" height="150" as="geometry" />
        </mxCell>
        <mxCell id="NaKYAFpzRuEfEqi5Qttv-108" value="" style="shape=partialRectangle;collapsible=0;dropTarget=0;pointerEvents=0;fillColor=none;top=0;left=0;bottom=1;right=0;points=[[0,0.5],[1,0.5]];portConstraint=eastwest;strokeColor=#457B9D;fontColor=#1D3557;" vertex="1" parent="NaKYAFpzRuEfEqi5Qttv-107">
          <mxGeometry y="30" width="180" height="20" as="geometry" />
        </mxCell>
        <mxCell id="NaKYAFpzRuEfEqi5Qttv-109" value="PK" style="shape=partialRectangle;connectable=0;fillColor=none;top=0;left=0;bottom=0;right=0;fontStyle=1;overflow=hidden;strokeColor=#457B9D;fontColor=#1D3557;" vertex="1" parent="NaKYAFpzRuEfEqi5Qttv-108">
          <mxGeometry width="30" height="20" as="geometry" />
        </mxCell>
        <mxCell id="NaKYAFpzRuEfEqi5Qttv-110" value="id" style="shape=partialRectangle;connectable=0;fillColor=none;top=0;left=0;bottom=0;right=0;align=left;spacingLeft=6;fontStyle=5;overflow=hidden;strokeColor=#457B9D;fontColor=#1D3557;" vertex="1" parent="NaKYAFpzRuEfEqi5Qttv-108">
          <mxGeometry x="30" width="150" height="20" as="geometry" />
        </mxCell>
        <mxCell id="NaKYAFpzRuEfEqi5Qttv-111" value="" style="shape=partialRectangle;collapsible=0;dropTarget=0;pointerEvents=0;fillColor=none;top=0;left=0;bottom=0;right=0;points=[[0,0.5],[1,0.5]];portConstraint=eastwest;strokeColor=#457B9D;fontColor=#1D3557;" vertex="1" parent="NaKYAFpzRuEfEqi5Qttv-107">
          <mxGeometry y="50" width="180" height="30" as="geometry" />
        </mxCell>
        <mxCell id="NaKYAFpzRuEfEqi5Qttv-112" value="" style="shape=partialRectangle;connectable=0;fillColor=none;top=0;left=0;bottom=0;right=0;editable=1;overflow=hidden;strokeColor=#457B9D;fontColor=#1D3557;" vertex="1" parent="NaKYAFpzRuEfEqi5Qttv-111">
          <mxGeometry width="30" height="30" as="geometry" />
        </mxCell>
        <mxCell id="NaKYAFpzRuEfEqi5Qttv-113" value="name" style="shape=partialRectangle;connectable=0;fillColor=none;top=0;left=0;bottom=0;right=0;align=left;spacingLeft=6;overflow=hidden;strokeColor=#457B9D;fontColor=#1D3557;" vertex="1" parent="NaKYAFpzRuEfEqi5Qttv-111">
          <mxGeometry x="30" width="150" height="30" as="geometry" />
        </mxCell>
        <mxCell id="NaKYAFpzRuEfEqi5Qttv-114" value="" style="shape=partialRectangle;collapsible=0;dropTarget=0;pointerEvents=0;fillColor=none;top=0;left=0;bottom=0;right=0;points=[[0,0.5],[1,0.5]];portConstraint=eastwest;strokeColor=#457B9D;fontColor=#1D3557;" vertex="1" parent="NaKYAFpzRuEfEqi5Qttv-107">
          <mxGeometry y="80" width="180" height="30" as="geometry" />
        </mxCell>
        <mxCell id="NaKYAFpzRuEfEqi5Qttv-115" value="" style="shape=partialRectangle;connectable=0;fillColor=none;top=0;left=0;bottom=0;right=0;editable=1;overflow=hidden;strokeColor=#457B9D;fontColor=#1D3557;" vertex="1" parent="NaKYAFpzRuEfEqi5Qttv-114">
          <mxGeometry width="30" height="30" as="geometry" />
        </mxCell>
        <mxCell id="NaKYAFpzRuEfEqi5Qttv-116" value="start_date " style="shape=partialRectangle;connectable=0;fillColor=none;top=0;left=0;bottom=0;right=0;align=left;spacingLeft=6;overflow=hidden;strokeColor=#457B9D;fontColor=#1D3557;" vertex="1" parent="NaKYAFpzRuEfEqi5Qttv-114">
          <mxGeometry x="30" width="150" height="30" as="geometry" />
        </mxCell>
        <mxCell id="NaKYAFpzRuEfEqi5Qttv-117" value="" style="shape=partialRectangle;collapsible=0;dropTarget=0;pointerEvents=0;fillColor=none;top=0;left=0;bottom=0;right=0;points=[[0,0.5],[1,0.5]];portConstraint=eastwest;strokeColor=#457B9D;fontColor=#1D3557;" vertex="1" parent="NaKYAFpzRuEfEqi5Qttv-107">
          <mxGeometry y="110" width="180" height="30" as="geometry" />
        </mxCell>
        <mxCell id="NaKYAFpzRuEfEqi5Qttv-118" value="" style="shape=partialRectangle;connectable=0;fillColor=none;top=0;left=0;bottom=0;right=0;editable=1;overflow=hidden;strokeColor=#457B9D;fontColor=#1D3557;" vertex="1" parent="NaKYAFpzRuEfEqi5Qttv-117">
          <mxGeometry width="30" height="30" as="geometry" />
        </mxCell>
        <mxCell id="NaKYAFpzRuEfEqi5Qttv-119" value="end_date" style="shape=partialRectangle;connectable=0;fillColor=none;top=0;left=0;bottom=0;right=0;align=left;spacingLeft=6;overflow=hidden;strokeColor=#457B9D;fontColor=#1D3557;" vertex="1" parent="NaKYAFpzRuEfEqi5Qttv-117">
          <mxGeometry x="30" width="150" height="30" as="geometry" />
        </mxCell>
        <mxCell id="NaKYAFpzRuEfEqi5Qttv-120" value="teacher" style="shape=table;startSize=30;container=1;collapsible=1;childLayout=tableLayout;fixedRows=1;rowLines=0;fontStyle=1;align=center;resizeLast=1;fillColor=#A8DADC;strokeColor=#457B9D;fontColor=#1D3557;" vertex="1" parent="1">
          <mxGeometry x="900" y="425" width="180" height="180" as="geometry" />
        </mxCell>
        <mxCell id="NaKYAFpzRuEfEqi5Qttv-121" value="" style="shape=partialRectangle;collapsible=0;dropTarget=0;pointerEvents=0;fillColor=none;top=0;left=0;bottom=1;right=0;points=[[0,0.5],[1,0.5]];portConstraint=eastwest;strokeColor=#457B9D;fontColor=#1D3557;" vertex="1" parent="NaKYAFpzRuEfEqi5Qttv-120">
          <mxGeometry y="30" width="180" height="20" as="geometry" />
        </mxCell>
        <mxCell id="NaKYAFpzRuEfEqi5Qttv-122" value="PK" style="shape=partialRectangle;connectable=0;fillColor=none;top=0;left=0;bottom=0;right=0;fontStyle=1;overflow=hidden;strokeColor=#457B9D;fontColor=#1D3557;" vertex="1" parent="NaKYAFpzRuEfEqi5Qttv-121">
          <mxGeometry width="30" height="20" as="geometry" />
        </mxCell>
        <mxCell id="NaKYAFpzRuEfEqi5Qttv-123" value="id" style="shape=partialRectangle;connectable=0;fillColor=none;top=0;left=0;bottom=0;right=0;align=left;spacingLeft=6;fontStyle=5;overflow=hidden;strokeColor=#457B9D;fontColor=#1D3557;" vertex="1" parent="NaKYAFpzRuEfEqi5Qttv-121">
          <mxGeometry x="30" width="150" height="20" as="geometry" />
        </mxCell>
        <mxCell id="NaKYAFpzRuEfEqi5Qttv-124" value="" style="shape=partialRectangle;collapsible=0;dropTarget=0;pointerEvents=0;fillColor=none;top=0;left=0;bottom=0;right=0;points=[[0,0.5],[1,0.5]];portConstraint=eastwest;strokeColor=#457B9D;fontColor=#1D3557;" vertex="1" parent="NaKYAFpzRuEfEqi5Qttv-120">
          <mxGeometry y="50" width="180" height="30" as="geometry" />
        </mxCell>
        <mxCell id="NaKYAFpzRuEfEqi5Qttv-125" value="" style="shape=partialRectangle;connectable=0;fillColor=none;top=0;left=0;bottom=0;right=0;editable=1;overflow=hidden;strokeColor=#457B9D;fontColor=#1D3557;" vertex="1" parent="NaKYAFpzRuEfEqi5Qttv-124">
          <mxGeometry width="30" height="30" as="geometry" />
        </mxCell>
        <mxCell id="NaKYAFpzRuEfEqi5Qttv-126" value="name" style="shape=partialRectangle;connectable=0;fillColor=none;top=0;left=0;bottom=0;right=0;align=left;spacingLeft=6;overflow=hidden;strokeColor=#457B9D;fontColor=#1D3557;" vertex="1" parent="NaKYAFpzRuEfEqi5Qttv-124">
          <mxGeometry x="30" width="150" height="30" as="geometry" />
        </mxCell>
        <mxCell id="NaKYAFpzRuEfEqi5Qttv-127" value="" style="shape=partialRectangle;collapsible=0;dropTarget=0;pointerEvents=0;fillColor=none;top=0;left=0;bottom=0;right=0;points=[[0,0.5],[1,0.5]];portConstraint=eastwest;strokeColor=#457B9D;fontColor=#1D3557;" vertex="1" parent="NaKYAFpzRuEfEqi5Qttv-120">
          <mxGeometry y="80" width="180" height="30" as="geometry" />
        </mxCell>
        <mxCell id="NaKYAFpzRuEfEqi5Qttv-128" value="" style="shape=partialRectangle;connectable=0;fillColor=none;top=0;left=0;bottom=0;right=0;editable=1;overflow=hidden;strokeColor=#457B9D;fontColor=#1D3557;" vertex="1" parent="NaKYAFpzRuEfEqi5Qttv-127">
          <mxGeometry width="30" height="30" as="geometry" />
        </mxCell>
        <mxCell id="NaKYAFpzRuEfEqi5Qttv-129" value="start_date" style="shape=partialRectangle;connectable=0;fillColor=none;top=0;left=0;bottom=0;right=0;align=left;spacingLeft=6;overflow=hidden;strokeColor=#457B9D;fontColor=#1D3557;" vertex="1" parent="NaKYAFpzRuEfEqi5Qttv-127">
          <mxGeometry x="30" width="150" height="30" as="geometry" />
        </mxCell>
        <mxCell id="NaKYAFpzRuEfEqi5Qttv-130" value="" style="shape=partialRectangle;collapsible=0;dropTarget=0;pointerEvents=0;fillColor=none;top=0;left=0;bottom=0;right=0;points=[[0,0.5],[1,0.5]];portConstraint=eastwest;strokeColor=#457B9D;fontColor=#1D3557;" vertex="1" parent="NaKYAFpzRuEfEqi5Qttv-120">
          <mxGeometry y="110" width="180" height="30" as="geometry" />
        </mxCell>
        <mxCell id="NaKYAFpzRuEfEqi5Qttv-131" value="" style="shape=partialRectangle;connectable=0;fillColor=none;top=0;left=0;bottom=0;right=0;editable=1;overflow=hidden;strokeColor=#457B9D;fontColor=#1D3557;" vertex="1" parent="NaKYAFpzRuEfEqi5Qttv-130">
          <mxGeometry width="30" height="30" as="geometry" />
        </mxCell>
        <mxCell id="NaKYAFpzRuEfEqi5Qttv-132" value="end_date" style="shape=partialRectangle;connectable=0;fillColor=none;top=0;left=0;bottom=0;right=0;align=left;spacingLeft=6;overflow=hidden;strokeColor=#457B9D;fontColor=#1D3557;" vertex="1" parent="NaKYAFpzRuEfEqi5Qttv-130">
          <mxGeometry x="30" width="150" height="30" as="geometry" />
        </mxCell>
        <mxCell id="NaKYAFpzRuEfEqi5Qttv-133" value="" style="shape=partialRectangle;collapsible=0;dropTarget=0;pointerEvents=0;fillColor=none;top=0;left=0;bottom=0;right=0;points=[[0,0.5],[1,0.5]];portConstraint=eastwest;strokeColor=#457B9D;fontColor=#1D3557;" vertex="1" parent="NaKYAFpzRuEfEqi5Qttv-120">
          <mxGeometry y="140" width="180" height="30" as="geometry" />
        </mxCell>
        <mxCell id="NaKYAFpzRuEfEqi5Qttv-134" value="" style="shape=partialRectangle;connectable=0;fillColor=none;top=0;left=0;bottom=0;right=0;editable=1;overflow=hidden;strokeColor=#457B9D;fontColor=#1D3557;" vertex="1" parent="NaKYAFpzRuEfEqi5Qttv-133">
          <mxGeometry width="30" height="30" as="geometry" />
        </mxCell>
        <mxCell id="NaKYAFpzRuEfEqi5Qttv-135" value="is_active" style="shape=partialRectangle;connectable=0;fillColor=none;top=0;left=0;bottom=0;right=0;align=left;spacingLeft=6;overflow=hidden;strokeColor=#457B9D;fontColor=#1D3557;" vertex="1" parent="NaKYAFpzRuEfEqi5Qttv-133">
          <mxGeometry x="30" width="150" height="30" as="geometry" />
        </mxCell>
        <mxCell id="NaKYAFpzRuEfEqi5Qttv-136" value="assistance_requests" style="shape=table;startSize=40;container=1;collapsible=1;childLayout=tableLayout;fixedRows=1;rowLines=0;fontStyle=1;align=center;resizeLast=1;fillColor=#A8DADC;strokeColor=#457B9D;fontColor=#1D3557;" vertex="1" parent="1">
          <mxGeometry x="1260" y="500" width="180" height="310" as="geometry" />
        </mxCell>
        <mxCell id="NaKYAFpzRuEfEqi5Qttv-137" value="" style="shape=partialRectangle;collapsible=0;dropTarget=0;pointerEvents=0;fillColor=none;top=0;left=0;bottom=1;right=0;points=[[0,0.5],[1,0.5]];portConstraint=eastwest;strokeColor=#457B9D;fontColor=#1D3557;" vertex="1" parent="NaKYAFpzRuEfEqi5Qttv-136">
          <mxGeometry y="40" width="180" height="20" as="geometry" />
        </mxCell>
        <mxCell id="NaKYAFpzRuEfEqi5Qttv-138" value="PK" style="shape=partialRectangle;connectable=0;fillColor=none;top=0;left=0;bottom=0;right=0;fontStyle=1;overflow=hidden;strokeColor=#457B9D;fontColor=#1D3557;" vertex="1" parent="NaKYAFpzRuEfEqi5Qttv-137">
          <mxGeometry width="30" height="20" as="geometry" />
        </mxCell>
        <mxCell id="NaKYAFpzRuEfEqi5Qttv-139" value="id" style="shape=partialRectangle;connectable=0;fillColor=none;top=0;left=0;bottom=0;right=0;align=left;spacingLeft=6;fontStyle=5;overflow=hidden;strokeColor=#457B9D;fontColor=#1D3557;" vertex="1" parent="NaKYAFpzRuEfEqi5Qttv-137">
          <mxGeometry x="30" width="150" height="20" as="geometry" />
        </mxCell>
        <mxCell id="NaKYAFpzRuEfEqi5Qttv-140" value="" style="shape=partialRectangle;collapsible=0;dropTarget=0;pointerEvents=0;fillColor=none;top=0;left=0;bottom=0;right=0;points=[[0,0.5],[1,0.5]];portConstraint=eastwest;strokeColor=#457B9D;fontColor=#1D3557;" vertex="1" parent="NaKYAFpzRuEfEqi5Qttv-136">
          <mxGeometry y="60" width="180" height="30" as="geometry" />
        </mxCell>
        <mxCell id="NaKYAFpzRuEfEqi5Qttv-141" value="FK" style="shape=partialRectangle;connectable=0;fillColor=none;top=0;left=0;bottom=0;right=0;editable=1;overflow=hidden;strokeColor=#457B9D;fontColor=#1D3557;" vertex="1" parent="NaKYAFpzRuEfEqi5Qttv-140">
          <mxGeometry width="30" height="30" as="geometry" />
        </mxCell>
        <mxCell id="NaKYAFpzRuEfEqi5Qttv-142" value="assignment_id" style="shape=partialRectangle;connectable=0;fillColor=none;top=0;left=0;bottom=0;right=0;align=left;spacingLeft=6;overflow=hidden;strokeColor=#457B9D;fontColor=#1D3557;" vertex="1" parent="NaKYAFpzRuEfEqi5Qttv-140">
          <mxGeometry x="30" width="150" height="30" as="geometry" />
        </mxCell>
        <mxCell id="NaKYAFpzRuEfEqi5Qttv-143" value="" style="shape=partialRectangle;collapsible=0;dropTarget=0;pointerEvents=0;fillColor=none;top=0;left=0;bottom=0;right=0;points=[[0,0.5],[1,0.5]];portConstraint=eastwest;strokeColor=#457B9D;fontColor=#1D3557;" vertex="1" parent="NaKYAFpzRuEfEqi5Qttv-136">
          <mxGeometry y="90" width="180" height="30" as="geometry" />
        </mxCell>
        <mxCell id="NaKYAFpzRuEfEqi5Qttv-144" value="FK" style="shape=partialRectangle;connectable=0;fillColor=none;top=0;left=0;bottom=0;right=0;editable=1;overflow=hidden;strokeColor=#457B9D;fontColor=#1D3557;" vertex="1" parent="NaKYAFpzRuEfEqi5Qttv-143">
          <mxGeometry width="30" height="30" as="geometry" />
        </mxCell>
        <mxCell id="NaKYAFpzRuEfEqi5Qttv-145" value="student_id" style="shape=partialRectangle;connectable=0;fillColor=none;top=0;left=0;bottom=0;right=0;align=left;spacingLeft=6;overflow=hidden;strokeColor=#457B9D;fontColor=#1D3557;" vertex="1" parent="NaKYAFpzRuEfEqi5Qttv-143">
          <mxGeometry x="30" width="150" height="30" as="geometry" />
        </mxCell>
        <mxCell id="NaKYAFpzRuEfEqi5Qttv-146" value="" style="shape=partialRectangle;collapsible=0;dropTarget=0;pointerEvents=0;fillColor=none;top=0;left=0;bottom=0;right=0;points=[[0,0.5],[1,0.5]];portConstraint=eastwest;strokeColor=#457B9D;fontColor=#1D3557;" vertex="1" parent="NaKYAFpzRuEfEqi5Qttv-136">
          <mxGeometry y="120" width="180" height="30" as="geometry" />
        </mxCell>
        <mxCell id="NaKYAFpzRuEfEqi5Qttv-147" value="FK" style="shape=partialRectangle;connectable=0;fillColor=none;top=0;left=0;bottom=0;right=0;editable=1;overflow=hidden;strokeColor=#457B9D;fontColor=#1D3557;" vertex="1" parent="NaKYAFpzRuEfEqi5Qttv-146">
          <mxGeometry width="30" height="30" as="geometry" />
        </mxCell>
        <mxCell id="NaKYAFpzRuEfEqi5Qttv-148" value="teacher_id" style="shape=partialRectangle;connectable=0;fillColor=none;top=0;left=0;bottom=0;right=0;align=left;spacingLeft=6;overflow=hidden;strokeColor=#457B9D;fontColor=#1D3557;" vertex="1" parent="NaKYAFpzRuEfEqi5Qttv-146">
          <mxGeometry x="30" width="150" height="30" as="geometry" />
        </mxCell>
        <mxCell id="NaKYAFpzRuEfEqi5Qttv-149" value="" style="shape=partialRectangle;collapsible=0;dropTarget=0;pointerEvents=0;fillColor=none;top=0;left=0;bottom=0;right=0;points=[[0,0.5],[1,0.5]];portConstraint=eastwest;strokeColor=#457B9D;fontColor=#1D3557;" vertex="1" parent="NaKYAFpzRuEfEqi5Qttv-136">
          <mxGeometry y="150" width="180" height="30" as="geometry" />
        </mxCell>
        <mxCell id="NaKYAFpzRuEfEqi5Qttv-150" value="" style="shape=partialRectangle;connectable=0;fillColor=none;top=0;left=0;bottom=0;right=0;editable=1;overflow=hidden;strokeColor=#457B9D;fontColor=#1D3557;" vertex="1" parent="NaKYAFpzRuEfEqi5Qttv-149">
          <mxGeometry width="30" height="30" as="geometry" />
        </mxCell>
        <mxCell id="NaKYAFpzRuEfEqi5Qttv-151" value="created_at" style="shape=partialRectangle;connectable=0;fillColor=none;top=0;left=0;bottom=0;right=0;align=left;spacingLeft=6;overflow=hidden;strokeColor=#457B9D;fontColor=#1D3557;" vertex="1" parent="NaKYAFpzRuEfEqi5Qttv-149">
          <mxGeometry x="30" width="150" height="30" as="geometry" />
        </mxCell>
        <mxCell id="NaKYAFpzRuEfEqi5Qttv-152" value="" style="shape=partialRectangle;collapsible=0;dropTarget=0;pointerEvents=0;fillColor=none;top=0;left=0;bottom=0;right=0;points=[[0,0.5],[1,0.5]];portConstraint=eastwest;strokeColor=#457B9D;fontColor=#1D3557;" vertex="1" parent="NaKYAFpzRuEfEqi5Qttv-136">
          <mxGeometry y="180" width="180" height="30" as="geometry" />
        </mxCell>
        <mxCell id="NaKYAFpzRuEfEqi5Qttv-153" value="" style="shape=partialRectangle;connectable=0;fillColor=none;top=0;left=0;bottom=0;right=0;editable=1;overflow=hidden;strokeColor=#457B9D;fontColor=#1D3557;" vertex="1" parent="NaKYAFpzRuEfEqi5Qttv-152">
          <mxGeometry width="30" height="30" as="geometry" />
        </mxCell>
        <mxCell id="NaKYAFpzRuEfEqi5Qttv-154" value="started_at" style="shape=partialRectangle;connectable=0;fillColor=none;top=0;left=0;bottom=0;right=0;align=left;spacingLeft=6;overflow=hidden;strokeColor=#457B9D;fontColor=#1D3557;" vertex="1" parent="NaKYAFpzRuEfEqi5Qttv-152">
          <mxGeometry x="30" width="150" height="30" as="geometry" />
        </mxCell>
        <mxCell id="NaKYAFpzRuEfEqi5Qttv-155" value="" style="shape=partialRectangle;collapsible=0;dropTarget=0;pointerEvents=0;fillColor=none;top=0;left=0;bottom=0;right=0;points=[[0,0.5],[1,0.5]];portConstraint=eastwest;strokeColor=#457B9D;fontColor=#1D3557;" vertex="1" parent="NaKYAFpzRuEfEqi5Qttv-136">
          <mxGeometry y="210" width="180" height="30" as="geometry" />
        </mxCell>
        <mxCell id="NaKYAFpzRuEfEqi5Qttv-156" value="" style="shape=partialRectangle;connectable=0;fillColor=none;top=0;left=0;bottom=0;right=0;editable=1;overflow=hidden;strokeColor=#457B9D;fontColor=#1D3557;" vertex="1" parent="NaKYAFpzRuEfEqi5Qttv-155">
          <mxGeometry width="30" height="30" as="geometry" />
        </mxCell>
        <mxCell id="NaKYAFpzRuEfEqi5Qttv-157" value="completed_at" style="shape=partialRectangle;connectable=0;fillColor=none;top=0;left=0;bottom=0;right=0;align=left;spacingLeft=6;overflow=hidden;strokeColor=#457B9D;fontColor=#1D3557;" vertex="1" parent="NaKYAFpzRuEfEqi5Qttv-155">
          <mxGeometry x="30" width="150" height="30" as="geometry" />
        </mxCell>
        <mxCell id="NaKYAFpzRuEfEqi5Qttv-158" value="" style="shape=partialRectangle;collapsible=0;dropTarget=0;pointerEvents=0;fillColor=none;top=0;left=0;bottom=0;right=0;points=[[0,0.5],[1,0.5]];portConstraint=eastwest;strokeColor=#457B9D;fontColor=#1D3557;" vertex="1" parent="NaKYAFpzRuEfEqi5Qttv-136">
          <mxGeometry y="240" width="180" height="30" as="geometry" />
        </mxCell>
        <mxCell id="NaKYAFpzRuEfEqi5Qttv-159" value="" style="shape=partialRectangle;connectable=0;fillColor=none;top=0;left=0;bottom=0;right=0;editable=1;overflow=hidden;strokeColor=#457B9D;fontColor=#1D3557;" vertex="1" parent="NaKYAFpzRuEfEqi5Qttv-158">
          <mxGeometry width="30" height="30" as="geometry" />
        </mxCell>
        <mxCell id="NaKYAFpzRuEfEqi5Qttv-160" value="student_feedback" style="shape=partialRectangle;connectable=0;fillColor=none;top=0;left=0;bottom=0;right=0;align=left;spacingLeft=6;overflow=hidden;strokeColor=#457B9D;fontColor=#1D3557;" vertex="1" parent="NaKYAFpzRuEfEqi5Qttv-158">
          <mxGeometry x="30" width="150" height="30" as="geometry" />
        </mxCell>
        <mxCell id="NaKYAFpzRuEfEqi5Qttv-161" value="" style="shape=partialRectangle;collapsible=0;dropTarget=0;pointerEvents=0;fillColor=none;top=0;left=0;bottom=0;right=0;points=[[0,0.5],[1,0.5]];portConstraint=eastwest;strokeColor=#457B9D;fontColor=#1D3557;" vertex="1" parent="NaKYAFpzRuEfEqi5Qttv-136">
          <mxGeometry y="270" width="180" height="30" as="geometry" />
        </mxCell>
        <mxCell id="NaKYAFpzRuEfEqi5Qttv-162" value="" style="shape=partialRectangle;connectable=0;fillColor=none;top=0;left=0;bottom=0;right=0;editable=1;overflow=hidden;strokeColor=#457B9D;fontColor=#1D3557;" vertex="1" parent="NaKYAFpzRuEfEqi5Qttv-161">
          <mxGeometry width="30" height="30" as="geometry" />
        </mxCell>
        <mxCell id="NaKYAFpzRuEfEqi5Qttv-163" value="teacher_feedback" style="shape=partialRectangle;connectable=0;fillColor=none;top=0;left=0;bottom=0;right=0;align=left;spacingLeft=6;overflow=hidden;strokeColor=#457B9D;fontColor=#1D3557;" vertex="1" parent="NaKYAFpzRuEfEqi5Qttv-161">
          <mxGeometry x="30" width="150" height="30" as="geometry" />
        </mxCell>
        <mxCell id="NaKYAFpzRuEfEqi5Qttv-164" value="" style="edgeStyle=orthogonalEdgeStyle;fontSize=12;html=1;endArrow=ERoneToMany;strokeColor=#457B9D;fillColor=#A8DADC;entryX=0;entryY=0.5;entryDx=0;entryDy=0;exitX=1;exitY=0.5;exitDx=0;exitDy=0;labelBackgroundColor=#F1FAEE;fontColor=#1D3557;" edge="1" parent="1" source="NaKYAFpzRuEfEqi5Qttv-108" target="NaKYAFpzRuEfEqi5Qttv-104">
          <mxGeometry width="100" height="100" relative="1" as="geometry">
            <mxPoint x="1310" y="370" as="sourcePoint" />
            <mxPoint x="1410" y="270" as="targetPoint" />
            <Array as="points">
              <mxPoint x="1130" y="60" />
              <mxPoint x="1130" y="405" />
            </Array>
          </mxGeometry>
        </mxCell>
        <mxCell id="NaKYAFpzRuEfEqi5Qttv-170" value="" style="edgeStyle=orthogonalEdgeStyle;fontSize=12;html=1;endArrow=ERoneToMany;strokeColor=#457B9D;fillColor=#A8DADC;entryX=0;entryY=0.5;entryDx=0;entryDy=0;labelBackgroundColor=#F1FAEE;fontColor=#1D3557;exitX=0;exitY=0.5;exitDx=0;exitDy=0;" edge="1" parent="1" source="NaKYAFpzRuEfEqi5Qttv-121" target="NaKYAFpzRuEfEqi5Qttv-146">
          <mxGeometry width="100" height="100" relative="1" as="geometry">
            <mxPoint x="1310" y="370" as="sourcePoint" />
            <mxPoint x="1410" y="270" as="targetPoint" />
            <Array as="points">
              <mxPoint x="870" y="465" />
              <mxPoint x="870" y="635" />
            </Array>
          </mxGeometry>
        </mxCell>
        <mxCell id="NaKYAFpzRuEfEqi5Qttv-172" value="" style="fontSize=12;html=1;endArrow=ERoneToMany;strokeColor=#457B9D;fillColor=#A8DADC;entryX=0;entryY=0.5;entryDx=0;entryDy=0;exitX=0;exitY=0.5;exitDx=0;exitDy=0;edgeStyle=orthogonalEdgeStyle;rounded=1;labelBackgroundColor=#F1FAEE;fontColor=#1D3557;" edge="1" parent="1" source="NaKYAFpzRuEfEqi5Qttv-83" target="NaKYAFpzRuEfEqi5Qttv-73">
          <mxGeometry width="100" height="100" relative="1" as="geometry">
            <mxPoint x="1240" y="370" as="sourcePoint" />
            <mxPoint x="1340" y="270" as="targetPoint" />
            <Array as="points">
              <mxPoint x="1180" y="200" />
              <mxPoint x="1180" y="15" />
            </Array>
          </mxGeometry>
        </mxCell>
        <mxCell id="NaKYAFpzRuEfEqi5Qttv-177" value="" style="edgeStyle=orthogonalEdgeStyle;fontSize=12;html=1;endArrow=ERoneToMany;strokeColor=#457B9D;fillColor=#A8DADC;exitX=0;exitY=0.5;exitDx=0;exitDy=0;entryX=0;entryY=0.5;entryDx=0;entryDy=0;labelBackgroundColor=#F1FAEE;fontColor=#1D3557;" edge="1" parent="1" source="NaKYAFpzRuEfEqi5Qttv-83" target="NaKYAFpzRuEfEqi5Qttv-143">
          <mxGeometry width="100" height="100" relative="1" as="geometry">
            <mxPoint x="1330" y="370" as="sourcePoint" />
            <mxPoint x="1430" y="270" as="targetPoint" />
            <Array as="points">
              <mxPoint x="1180" y="200" />
              <mxPoint x="1180" y="605" />
            </Array>
          </mxGeometry>
        </mxCell>
        <mxCell id="NaKYAFpzRuEfEqi5Qttv-178" value="" style="edgeStyle=orthogonalEdgeStyle;fontSize=12;html=1;endArrow=ERoneToMany;strokeColor=#457B9D;fillColor=#A8DADC;exitX=0;exitY=0.5;exitDx=0;exitDy=0;entryX=0;entryY=0.5;entryDx=0;entryDy=0;labelBackgroundColor=#F1FAEE;fontColor=#1D3557;" edge="1" parent="1" source="NaKYAFpzRuEfEqi5Qttv-48" target="NaKYAFpzRuEfEqi5Qttv-70">
          <mxGeometry width="100" height="100" relative="1" as="geometry">
            <mxPoint x="1330" y="370" as="sourcePoint" />
            <mxPoint x="1430" y="270" as="targetPoint" />
            <Array as="points">
              <mxPoint x="1200" y="140" />
              <mxPoint x="1200" y="-15" />
            </Array>
          </mxGeometry>
        </mxCell>
        <mxCell id="NaKYAFpzRuEfEqi5Qttv-180" value="" style="edgeStyle=orthogonalEdgeStyle;fontSize=12;html=1;endArrow=ERoneToMany;strokeColor=#457B9D;fillColor=#A8DADC;entryX=1;entryY=0.5;entryDx=0;entryDy=0;exitX=1;exitY=0.5;exitDx=0;exitDy=0;labelBackgroundColor=#F1FAEE;fontColor=#1D3557;" edge="1" parent="1" source="NaKYAFpzRuEfEqi5Qttv-48" target="NaKYAFpzRuEfEqi5Qttv-140">
          <mxGeometry width="100" height="100" relative="1" as="geometry">
            <mxPoint x="1500" y="460" as="sourcePoint" />
            <mxPoint x="1600" y="360" as="targetPoint" />
            <Array as="points">
              <mxPoint x="1680" y="140" />
              <mxPoint x="1680" y="545" />
            </Array>
          </mxGeometry>
        </mxCell>
      </root>
    </mxGraphModel>
  </diagram>
</mxfile>
